<?xml version="1.0" encoding="utf-8"?>
<!-- Generator: Adobe Illustrator 15.0.0, SVG Export Plug-In . SVG Version: 6.00 Build 0)  -->
<!DOCTYPE svg PUBLIC "-//W3C//DTD SVG 1.1//EN" "http://www.w3.org/Graphics/SVG/1.1/DTD/svg11.dtd">
<svg version="1.1" id="Layer_1" xmlns="http://www.w3.org/2000/svg" xmlns:xlink="http://www.w3.org/1999/xlink" x="0px" y="0px"
	 width="435px" height="96px" viewBox="0 0 435 96" enable-background="new 0 0 435 96" xml:space="preserve">
<path d="M0,1.021v1.396h11v90.211H0v1.395h37v-1.395H26V48.021c0,0,2.971-0.002,3,0c16.277,0.439,14.772,14.721,15,19.014h1.5
	V27.026H44c-0.682,8.586-0.296,18.942-14.885,19.495c-0.025,0-3.09-0.001-3.115,0V2.418h13.112c19.656,0,21.888,10.623,21.888,23
	h1.5V0.98L0,1.021z"/>
<path d="M63.688,59.021L78,17.541L92,59.02L63.688,59.021L63.688,59.021z M116,92.625L86,1.021h-4L50.037,92.625h-8L42,94.021h28
	v-1.396h-3c-10.544,0-13.375-4.396-9.667-15.188l5.917-16.834h29.125l10.613,32.021H92v1.396h32v-1.396H116z"/>
<polygon points="254,92.625 244,92.625 244,2.416 254,2.416 254,1.021 218,1.021 218,2.416 228,2.416 228,46.562 201,46.562 
	201,2.416 211,2.416 211,1.021 175,1.021 175,2.416 185,2.416 185,92.625 174,92.625 174,94.021 211,94.021 211,92.625 201,92.625 
	201,48.021 228,48.021 228,92.625 219,92.625 219,94.021 254,94.021 "/>
<polygon points="292.963,2.416 292.963,0.979 257,1.021 257,2.416 267,2.416 267,92.625 257,92.625 257,94.021 293,94.021 
	293,92.625 283,92.625 283,2.416 "/>
<path d="M409,1.021v1.396h1.094c10.825,0.215,12.823,7.656,12.906,12.604v50l-35-64h-29v1.396h9v90.211h-9v1.395h27v-1.395h-2.977
	c-11.783,0-11.964-10.377-11.94-14.729V2.416L424,96.021h2V2.416h9V1.021H409z"/>
<path d="M325.432,1.479c-15.057,0-19.182,25.26-19.182,46.891s4.113,45.609,19.182,45.609s19.018-23.99,19.018-45.609
	S340.488,1.479,325.432,1.479z M301.723,13.914c6.792-8.836,15.783-13.936,23.575-13.936c18.082,0,34.465,21.887,34.465,47.891
	c0,24.738-15.383,48.109-34.267,48.109c-16.682,0-34.362-19.71-34.362-48.236C291.134,41.812,292.529,25.905,301.723,13.914"/>
<path d="M157,43.187c7.321,2.909,15.731,6.321,18.388,15.328c0.704,2.386,1.005,5.088,1.005,7.597
	c0,15.364-10.978,28.645-27.242,28.645c-3.157,0-6.302-0.558-9.318-1.609c-2.864-1-5.051-1.872-7.739-3.336
	c-2.084-1.137-4.948-2.213-6.882-0.121c-1.117,1.206-0.988,2.732-1.212,4.332h-1.5v-32h1.5
	c2.387,18.666,12.889,31.105,24.824,31.105c8.466,0,19.271-6.438,19.271-16.221c0-11.386-12.316-17.562-17.915-20.453
	c-6.84-3.531-14.205-5.524-19.979-11.201c-7.755-7.621-8.502-21.322-3.83-31.176c1.243-2.623,2.856-5.037,4.784-7.074
	c1.923-2.033,4.102-3.84,6.562-4.974c1.568-0.724,4.7-2.007,10.283-2.007s6.547,0.717,7.72,0.994c2.231,0.527,4.87,1.51,7.13,2.523
	c1.102,0.496,1.744,0.834,3.259,1.109c2.984,0.342,3.664-2.484,3.891-3.628h1.5v25H170c-0.5-7.883-8.754-24.604-22-24.604
	c-9.505,0-19,7.771-19,19.275C129,31.418,137.5,35.437,157,43.187"/>
</svg>
